<svg id="图层_1" data-name="图层 1" xmlns="http://www.w3.org/2000/svg" viewBox="0 0 161 160"><defs><style>.cls-1{fill:#656565;}.cls-2{fill:#4d4d4d;}.cls-3{fill:#a3a3a3;}.cls-4{fill:#484848;}.cls-5{fill:#afafaf;}.cls-6{fill:#c1c1c1;}.cls-7{fill:#777;}</style></defs><title>google</title><circle class="cls-1" cx="80.5" cy="80" r="80"/><circle class="cls-2" cx="80.5" cy="80" r="25"/><path class="cls-3" d="M45.14,115.36a50,50,0,0,1,70.72-70.72l.24.27,21.22-21.22a3.07,3.07,0,0,1-.25-.26A80,80,0,1,0,116.9,151.24L93.84,128.18A50,50,0,0,1,45.14,115.36Z"/><path class="cls-4" d="M115.86,115.36A49.84,49.84,0,0,1,93.45,128.3L62.82,97.68A25,25,0,1,1,105.49,80h25A49.83,49.83,0,0,1,115.86,115.36Z"/><rect class="cls-5" x="74" y="72.53" width="80" height="14.93" rx="6.47" ry="6.47"/><circle class="cls-6" cx="34.54" cy="125.96" r="6"/><circle class="cls-6" cx="15.5" cy="80" r="6"/><circle class="cls-6" cx="34.54" cy="34.04" r="6"/><circle class="cls-7" cx="126.46" cy="125.96" r="6"/><circle class="cls-6" cx="80.5" cy="15" r="6"/><circle class="cls-6" cx="80.5" cy="145" r="6"/></svg>